<svg width="555" height="130" viewBox="0 0 555 130" fill="none" xmlns="http://www.w3.org/2000/svg">
<path d="M94.0958 127.045C76.5382 122.864 53.9641 95.6919 59.5077 97.537C65.0513 99.3822 171.851 102.102 171.894 97.537C171.938 92.9721 34.9112 82.7786 34.9112 82.7786C-6.72866 72.5262 0.476204 64.9929 0.476204 64.9929C0.476204 64.9929 -0.828452 56.5201 20.5319 54.3971C20.5319 54.3971 88.6449 52.505 84.8611 54.3971C81.0772 56.2893 42.508 55.8946 50.0476 64.9929C57.5871 74.0912 202.87 83.9155 210.492 97.537C218.114 111.159 154.866 117.593 154.866 117.593C154.866 117.593 141.752 128.717 128.378 129.324C115.003 129.932 111.653 131.225 94.0958 127.045Z" fill="white"/>
<path d="M138.199 2.95536C155.757 7.13589 178.331 34.3081 172.787 32.463C167.244 30.6178 60.4442 27.898 60.4007 32.463C60.3572 37.0279 197.384 47.2213 197.384 47.2213C239.024 57.4738 231.819 65.0071 231.819 65.0071C231.819 65.0071 233.124 73.4799 211.763 75.6029C211.763 75.6029 143.65 77.495 147.434 75.6029C151.218 73.7107 189.787 74.1054 182.248 65.0071C174.708 55.9088 29.4249 46.0845 21.8031 32.463C14.1813 18.8414 77.4289 12.4067 77.4289 12.4067C77.4289 12.4067 90.5429 1.28315 103.917 0.675647C117.292 0.068147 120.642 -1.22518 138.199 2.95536Z" fill="white"/>
<path d="M259.574 87.5118V39.7397H279.533L295.436 77.8265H297.726L296.417 79.0044V39.7397H307.804V87.5118H287.714L271.811 49.425H269.521L270.83 48.247V87.5118H259.574Z" fill="white"/>
<path d="M312.066 87.5118V39.7397H323.846V87.5118H312.066ZM322.537 87.5118V77.5647L356.682 77.8265V87.5118H322.537ZM322.537 68.2066V58.2595H356.682V68.2066H322.537ZM322.537 49.6867V39.7397H356.682V49.6867H322.537Z" fill="white"/>
<path d="M374.032 87.5118V49.0323H386.204V87.5118H374.032ZM360.944 50.3411V39.7397H399.293V50.3411H360.944Z" fill="white"/>
<path d="M424.889 88.8206C420.308 88.8206 416.425 87.9699 413.24 86.2684C410.099 84.5669 407.7 82.1674 406.042 79.0699C404.384 75.9287 403.555 72.2203 403.555 67.9448V39.7397H415.727V68.2066C415.727 70.0826 416.076 71.7186 416.774 73.1147C417.516 74.5108 418.563 75.5797 419.915 76.3213C421.268 77.063 422.926 77.4338 424.889 77.4338C426.852 77.4338 428.51 77.063 429.862 76.3213C431.215 75.5797 432.24 74.5326 432.938 73.1802C433.636 71.7841 433.985 70.1262 433.985 68.2066V39.7397H446.157V67.9448C446.157 72.2203 445.328 75.9287 443.671 79.0699C442.056 82.1674 439.657 84.5669 436.472 86.2684C433.331 87.9699 429.47 88.8206 424.889 88.8206Z" fill="white"/>
<path d="M450.42 87.5118V39.7397H470.379L486.281 77.8265H488.572L487.263 79.0044V39.7397H498.65V87.5118H478.559L462.657 49.425H460.367L461.676 48.247V87.5118H450.42Z" fill="white"/>
<path d="M528.696 90.2603C524.333 90.2603 520.538 89.5187 517.309 88.0353C514.081 86.5084 511.398 84.5233 509.26 82.0802C507.122 79.5934 505.53 76.9103 504.483 74.0309C503.436 71.1515 502.912 68.3593 502.912 65.6544V64.2147C502.912 61.2044 503.458 58.2595 504.548 55.3801C505.639 52.4571 507.275 49.8176 509.456 47.4617C511.638 45.1058 514.321 43.2299 517.506 41.8338C520.734 40.4377 524.464 39.7397 528.696 39.7397C532.884 39.7397 536.571 40.4377 539.756 41.8338C542.984 43.2299 545.689 45.1058 547.87 47.4617C550.052 49.8176 551.688 52.4571 552.778 55.3801C553.913 58.2595 554.48 61.2044 554.48 64.2147V65.6544C554.48 68.3593 553.935 71.1515 552.844 74.0309C551.797 76.9103 550.204 79.5934 548.067 82.0802C545.929 84.5233 543.246 86.5084 540.017 88.0353C536.789 89.5187 533.015 90.2603 528.696 90.2603ZM528.696 78.8735C530.79 78.8735 532.666 78.5245 534.324 77.8265C535.982 77.1284 537.4 76.1468 538.578 74.8816C539.756 73.6164 540.65 72.1549 541.261 70.4971C541.872 68.7956 542.177 66.9632 542.177 65C542.177 62.9059 541.85 61.0081 541.195 59.3066C540.584 57.6051 539.69 56.1436 538.512 54.922C537.334 53.7005 535.916 52.7625 534.259 52.1081C532.601 51.4537 530.746 51.1264 528.696 51.1264C526.602 51.1264 524.726 51.4537 523.068 52.1081C521.41 52.7625 519.992 53.7005 518.814 54.922C517.636 56.1436 516.742 57.6051 516.131 59.3066C515.52 61.0081 515.215 62.9059 515.215 65C515.215 66.9632 515.52 68.7956 516.131 70.4971C516.742 72.1549 517.636 73.6164 518.814 74.8816C519.992 76.1468 521.41 77.1284 523.068 77.8265C524.726 78.5245 526.602 78.8735 528.696 78.8735Z" fill="white"/>
</svg>
