<svg width="65" height="37" viewBox="0 0 65 37" fill="none" xmlns="http://www.w3.org/2000/svg">
<path d="M26.0143 35.4257C21.177 34.268 14.9576 26.7434 16.4849 27.2544C18.0122 27.7654 47.4368 28.5185 47.4488 27.2544C47.4607 25.9902 9.70828 23.1675 9.70828 23.1675C-1.76398 20.3283 0.221044 18.2422 0.221044 18.2422C0.221044 18.2422 -0.138404 15.8959 5.74663 15.308C5.74663 15.308 24.5126 14.784 23.4701 15.308C22.4276 15.8319 11.8013 15.7226 13.8785 18.2422C15.9558 20.7617 55.9829 23.4823 58.0828 27.2544C60.1827 31.0265 42.7573 32.8084 42.7573 32.8084C42.7573 32.8084 39.1442 35.8888 35.4594 36.057C31.7746 36.2253 30.8517 36.5834 26.0143 35.4257Z" fill="#1D1DF4"/>
<path d="M38.1654 1.06255C43.0027 2.22023 49.2221 9.74485 47.6948 9.23388C46.1675 8.72291 16.7429 7.96973 16.7309 9.23388C16.719 10.498 54.4714 13.3208 54.4714 13.3208C65.9437 16.16 63.9586 18.2461 63.9586 18.2461C63.9586 18.2461 64.3181 20.5924 58.4331 21.1803C58.4331 21.1803 39.6671 21.7043 40.7096 21.1803C41.7521 20.6563 52.3784 20.7656 50.3012 18.2461C48.2239 15.7266 8.19675 13.006 6.09685 9.23388C3.99695 5.46176 21.4224 3.67983 21.4224 3.67983C21.4224 3.67983 25.0355 0.599474 28.7203 0.431243C32.4051 0.263012 33.328 -0.0951395 38.1654 1.06255Z" fill="#1D1DF4"/>
</svg>
